<!DOCTYPE svg PUBLIC "-//W3C//DTD SVG 20010904//EN" "http://www.w3.org/TR/2001/REC-SVG-20010904/DTD/svg10.dtd">
<svg version="1.0" xmlns="http://www.w3.org/2000/svg" width="1024px" height="1024px" viewBox="0 0 10240 10240" preserveAspectRatio="xMidYMid meet">
<g id="layer101" fill="#569f59" stroke="none">
 <path d="M0 5120 l0 -5120 5120 0 5120 0 0 5120 0 5120 -5120 0 -5120 0 0 -5120z"/>
 </g>
<g id="layer102" fill="#80b782" stroke="none">
 <path d="M0 5120 l0 -5120 5120 0 5120 0 0 5120 0 5120 -5120 0 -5120 0 0 -5120z m8645 3714 c144 -31 199 -62 354 -200 25 -22 68 -58 95 -80 151 -120 207 -196 226 -307 8 -44 11 -143 8 -285 -5 -259 -17 -303 -96 -373 -44 -39 -153 -99 -204 -112 -22 -6 -22 -7 12 -37 19 -17 70 -58 112 -91 70 -55 78 -65 87 -110 14 -64 14 -293 1 -356 -6 -29 -19 -54 -30 -61 -14 -8 -127 -11 -427 -11 -424 0 -475 2 -533 20 -58 18 -157 70 -187 99 -15 15 -62 55 -103 89 -181 150 -260 221 -260 233 0 5 -9 21 -19 36 -42 58 -53 152 -50 400 3 167 7 234 17 244 6 6 12 19 12 28 0 38 69 117 138 158 39 23 75 42 81 42 23 0 7 17 -86 95 -53 44 -110 92 -127 107 l-31 26 -3 179 c-2 98 -1 191 2 208 13 64 -18 60 488 65 255 3 470 4 478 3 8 -1 29 -5 45 -9z m-2725 -29 c52 -2 146 -11 208 -19 214 -29 375 -77 512 -156 40 -23 226 -170 303 -239 29 -26 122 -105 207 -175 85 -70 166 -140 178 -154 42 -48 89 -126 111 -187 50 -134 51 -152 51 -1323 0 -1221 5 -1132 -70 -1169 -32 -16 -72 -18 -415 -18 l-380 0 -45 32 c-25 17 -79 62 -120 98 -41 37 -118 101 -170 143 -96 78 -179 149 -236 201 -53 49 -56 100 -52 919 2 447 -1 721 -6 719 -6 -2 -19 -16 -30 -31 -21 -27 -21 -37 -26 -1009 -5 -953 -6 -983 -24 -1008 -11 -14 -31 -34 -45 -45 -25 -18 -45 -19 -422 -19 l-395 0 -42 28 c-23 15 -66 49 -96 75 -29 26 -88 76 -131 112 -234 196 -313 268 -333 304 -16 29 -17 106 -18 1046 l-2 1015 24 130 c14 71 29 134 34 139 6 6 10 15 10 22 0 24 39 98 95 180 30 44 155 162 200 189 82 49 186 98 260 121 134 41 171 49 330 69 17 2 89 7 160 11 72 3 132 8 135 11 2 2 36 2 75 -1 38 -4 113 -8 165 -11z m-4070 -55 c61 -12 72 -19 323 -230 102 -85 205 -171 230 -190 26 -19 60 -54 77 -77 l31 -43 -1 -245 -1 -245 40 0 40 0 3 463 3 462 24 39 c42 68 55 70 422 74 387 4 421 0 495 -61 204 -167 429 -356 480 -404 59 -56 62 -61 73 -128 9 -52 11 -414 9 -1375 -3 -1297 -3 -1305 -24 -1344 -11 -22 -33 -49 -48 -60 -27 -20 -39 -21 -420 -21 l-392 0 -42 28 c-23 15 -66 49 -96 75 -29 26 -88 76 -131 112 -235 196 -313 268 -333 304 -14 26 -17 68 -20 259 l-4 227 -39 0 -40 0 1 -455 c1 -509 3 -496 -70 -532 -32 -16 -72 -18 -420 -18 -432 0 -394 -6 -491 80 -25 22 -78 67 -118 100 -70 57 -197 165 -309 261 -96 83 -87 -68 -90 1444 -3 1373 -3 1387 35 1446 15 24 46 39 108 53 55 12 630 13 695 1z m6322 -2896 c37 -5 61 -20 129 -76 104 -86 171 -142 223 -189 l40 -37 7 -208 c24 -686 25 -665 -19 -686 -21 -10 -89 -12 -292 -8 l-265 5 -85 70 c-218 178 -260 218 -266 251 -3 18 -3 120 0 226 4 106 9 265 11 353 6 193 12 265 26 281 6 7 27 15 47 17 64 6 397 7 444 1z m-5423 -707 c160 -24 244 -48 359 -103 71 -34 103 -59 305 -229 52 -44 124 -103 159 -131 34 -28 109 -92 165 -143 146 -131 189 -199 228 -364 23 -97 24 -117 24 -423 -1 -303 -2 -327 -25 -423 -34 -147 -73 -212 -170 -289 -120 -94 -163 -116 -341 -168 -7 -2 -13 -7 -13 -11 0 -5 84 -78 186 -163 128 -106 191 -165 201 -188 10 -25 14 -103 14 -342 0 -347 -1 -353 -71 -387 -32 -17 -85 -18 -715 -18 -626 0 -687 1 -770 19 -187 39 -311 102 -455 233 -30 27 -95 82 -145 122 -392 317 -463 406 -507 640 -14 73 -18 672 -5 751 36 215 135 344 348 451 19 10 48 21 63 25 15 3 25 11 23 18 -2 6 -53 51 -114 101 -212 173 -313 265 -320 293 -5 15 -8 162 -8 327 0 297 0 300 23 338 28 44 48 56 111 67 48 9 1391 6 1450 -3z m2320 3 c58 -11 79 -25 298 -210 81 -69 189 -159 240 -199 130 -104 127 -94 133 -396 l5 -250 23 25 24 25 -2 397 c-1 455 5 515 54 564 24 24 45 34 97 43 81 14 615 15 688 1 58 -11 79 -25 298 -210 81 -69 189 -159 240 -199 56 -45 99 -87 110 -109 17 -34 18 -81 21 -642 2 -529 1 -617 -14 -700 -45 -259 -176 -398 -426 -454 -28 -6 -37 -32 -19 -51 5 -6 21 -39 36 -75 14 -36 32 -78 40 -95 8 -16 22 -50 33 -75 31 -71 52 -121 74 -170 11 -25 24 -54 28 -65 5 -11 25 -55 44 -98 20 -42 36 -80 36 -84 0 -3 9 -24 19 -47 63 -133 73 -163 74 -208 1 -40 -4 -53 -26 -76 l-27 -27 -398 0 -397 0 -40 24 c-22 14 -61 43 -86 65 -25 23 -81 70 -124 106 -43 36 -102 85 -131 110 -29 25 -85 72 -124 105 -40 33 -85 73 -100 89 l-28 29 -4 -209 c-4 -232 -8 -251 -70 -296 -33 -23 -35 -23 -388 -26 -418 -4 -437 -2 -515 66 -30 26 -102 88 -161 137 -59 50 -128 108 -153 130 -25 23 -75 64 -111 93 -112 89 -100 -83 -100 1483 0 1019 3 1379 11 1398 18 40 64 72 117 81 69 11 640 12 701 0z"/>
 <path d="M8424 8553 c-401 -3 -422 -4 -438 -22 -15 -17 -18 -42 -18 -183 0 -90 3 -176 7 -192 14 -53 38 -56 418 -56 253 0 346 -3 355 -12 18 -18 15 -83 -5 -107 -18 -20 -114 -42 -258 -57 -191 -20 -357 -75 -428 -142 -34 -32 -72 -110 -82 -169 -9 -57 -9 -397 0 -453 12 -72 43 -130 104 -190 60 -61 93 -80 186 -112 56 -20 87 -21 471 -25 364 -4 416 -3 443 11 20 11 31 24 31 39 1 12 1 100 1 196 0 146 -2 177 -16 190 -14 14 -59 16 -338 19 l-323 3 -18 30 c-22 36 -14 83 18 104 12 8 64 19 116 25 52 6 103 13 113 16 10 3 51 9 90 14 111 13 185 27 202 39 6 4 26 14 45 21 56 22 134 84 152 121 9 19 22 47 29 63 19 40 20 539 2 558 -7 6 -13 19 -13 28 0 21 -64 109 -104 142 -49 40 -163 86 -243 98 -37 5 -70 9 -73 7 -3 -1 -194 -3 -426 -4z m438 -217 c38 -9 73 -26 101 -49 40 -33 52 -51 72 -112 3 -11 6 -85 6 -166 1 -180 -7 -202 -97 -264 -17 -13 -83 -29 -159 -40 -22 -3 -280 -56 -387 -79 -84 -18 -124 -45 -138 -94 -11 -41 -14 -261 -4 -312 4 -18 26 -51 53 -79 65 -67 101 -73 429 -69 204 2 262 0 262 -9 0 -10 -65 -13 -292 -13 -161 0 -310 4 -330 9 -49 12 -115 64 -135 110 -14 29 -17 68 -17 201 1 236 12 254 182 286 42 8 102 21 133 29 30 8 68 17 85 19 30 4 174 33 229 45 39 8 106 44 126 67 28 33 37 78 38 202 2 102 -1 128 -18 165 -22 47 -76 102 -120 119 -16 6 -148 10 -357 8 -281 -1 -332 1 -343 14 -18 22 0 23 329 24 216 1 310 -2 352 -12z"/>
 <path d="M5955 8333 c-232 -18 -455 -73 -600 -146 -152 -76 -268 -199 -317 -337 -19 -52 -46 -166 -46 -195 -6 -321 0 -2170 7 -2188 5 -13 25 -35 43 -48 33 -24 34 -24 370 -27 386 -4 428 2 470 61 l23 32 2 965 c2 688 6 973 14 993 6 15 26 40 44 56 32 28 61 35 231 56 17 2 80 -2 140 -9 123 -15 167 -34 198 -87 21 -34 21 -48 26 -1004 5 -955 5 -971 25 -1005 33 -55 75 -61 450 -58 284 3 324 5 356 21 74 37 70 -37 69 1149 -1 1132 -1 1140 -51 1279 -42 119 -129 228 -244 305 -43 29 -207 98 -290 122 -98 28 -222 50 -350 62 -100 9 -472 11 -570 3z m480 -378 c98 -10 198 -29 250 -47 173 -59 289 -185 331 -357 10 -42 13 -243 14 -922 1 -867 1 -869 -20 -869 -20 0 -20 3 -21 868 -1 477 -2 872 -3 877 -35 187 -155 322 -331 372 -105 30 -205 44 -355 50 -483 18 -745 -98 -815 -362 -14 -53 -16 -166 -15 -932 l1 -873 -26 0 -26 0 4 868 c2 477 7 878 10 892 4 14 11 44 17 67 14 58 72 153 129 212 57 59 152 106 256 128 78 17 86 18 200 28 44 3 82 9 85 12 5 5 234 -3 315 -12z"/>
 <path d="M1633 8264 c-67 -29 -63 66 -61 -1441 l3 -1361 24 -25 c38 -42 117 -49 466 -45 273 3 314 5 346 21 69 34 69 33 69 542 l0 455 336 0 335 0 -1 -457 c-1 -292 2 -468 8 -484 6 -15 26 -37 44 -50 l33 -24 365 0 365 0 33 24 c18 13 38 35 43 48 6 16 9 550 9 1380 0 1352 0 1354 -20 1383 -12 17 -36 34 -58 40 -54 15 -707 12 -752 -3 -20 -7 -41 -25 -53 -44 -18 -31 -19 -59 -17 -503 l1 -470 -336 0 -335 0 -1 458 c-1 251 -1 460 0 465 4 26 -32 79 -63 92 -50 21 -735 20 -783 -1z m407 -884 l0 -530 770 0 770 0 0 530 c0 464 2 530 15 530 13 0 15 -126 15 -1075 0 -949 -2 -1075 -15 -1075 -13 0 -15 66 -15 530 l0 530 -770 0 -770 0 0 -530 c0 -464 -2 -530 -15 -530 -13 0 -15 126 -15 1075 0 949 2 1075 15 1075 13 0 15 -66 15 -530z"/>
 <path d="M8029 5551 c-26 -21 -26 -15 -33 -336 -3 -137 -9 -307 -12 -377 l-6 -127 34 -21 c31 -19 48 -20 262 -19 184 0 235 3 259 16 l29 15 -8 251 c-4 139 -8 322 -9 407 -1 85 -5 163 -9 173 -15 32 -54 38 -272 37 -188 -1 -216 -4 -235 -19z m251 -436 c0 -150 -4 -235 -10 -235 -6 0 -10 85 -10 235 0 150 4 235 10 235 6 0 10 -85 10 -235z"/>
 <path d="M1790 4667 c-20 -7 -41 -25 -53 -44 -17 -30 -19 -57 -19 -327 0 -252 3 -298 16 -319 35 -52 27 -52 663 -57 660 -6 617 0 633 -76 12 -60 -1 -124 -30 -146 -19 -14 -98 -28 -345 -63 -311 -43 -377 -54 -460 -77 -194 -52 -350 -162 -414 -292 -17 -35 -31 -71 -31 -80 0 -10 -4 -25 -9 -35 -18 -34 -23 -129 -23 -453 0 -325 0 -327 27 -415 40 -131 77 -194 164 -275 41 -38 84 -74 96 -79 11 -5 34 -17 50 -27 38 -23 164 -68 230 -82 92 -21 237 -25 830 -25 546 0 593 1 626 18 66 33 69 51 69 370 0 274 -1 283 -23 322 -35 62 -43 63 -609 64 -479 1 -499 2 -517 20 -40 40 -45 135 -9 178 20 24 69 42 135 48 32 3 68 8 81 11 12 2 44 7 70 9 26 3 65 8 87 12 62 10 66 10 140 18 38 4 72 8 76 10 3 3 30 7 60 9 105 11 248 54 359 109 62 31 200 148 200 170 0 6 6 18 14 26 18 21 65 165 72 221 3 25 8 149 11 275 11 458 -26 607 -191 771 -80 79 -103 96 -176 129 -19 9 -49 22 -65 30 -38 17 -95 31 -205 50 -113 19 -1474 21 -1530 2z m1428 -371 c134 -31 232 -123 282 -266 20 -60 25 -351 7 -455 -19 -106 -39 -149 -93 -197 -77 -69 -36 -58 -769 -206 -159 -32 -307 -66 -327 -76 -56 -27 -83 -57 -106 -118 -19 -50 -21 -78 -21 -284 0 -136 4 -243 10 -264 21 -65 78 -137 140 -174 32 -19 76 -40 96 -47 27 -9 178 -14 521 -16 408 -4 482 -7 482 -19 0 -12 -67 -14 -447 -14 -247 0 -480 5 -520 10 -146 19 -275 125 -307 252 -11 48 -9 520 3 566 7 23 25 58 42 76 57 66 97 78 539 167 140 28 309 62 375 75 142 29 197 48 248 87 42 33 81 95 92 147 10 44 10 415 0 461 -25 123 -138 231 -280 268 -26 7 -231 11 -578 11 -427 0 -538 3 -535 13 4 9 121 13 524 17 564 5 532 6 622 -14z"/>
 <path d="M4850 4658 c-40 -21 -46 -28 -57 -76 -11 -42 -13 -313 -11 -1375 3 -1259 4 -1323 21 -1349 44 -64 37 -63 427 -63 382 0 414 4 445 51 14 22 16 78 15 519 l0 495 84 0 84 0 22 -52 c12 -29 30 -72 41 -95 10 -24 28 -63 39 -88 11 -25 29 -65 40 -90 26 -59 53 -121 75 -170 9 -22 26 -59 36 -82 10 -24 28 -63 39 -88 11 -25 29 -65 40 -90 11 -25 28 -64 39 -88 72 -163 87 -183 146 -208 22 -10 123 -14 365 -17 376 -3 414 1 439 53 17 36 16 40 -74 240 -8 17 -23 53 -35 80 -12 28 -28 64 -35 80 -8 17 -23 53 -35 80 -12 28 -28 64 -35 80 -8 17 -23 53 -35 80 -12 28 -28 64 -35 80 -8 17 -23 50 -33 75 -11 25 -34 76 -51 113 -39 85 -43 113 -16 110 22 -2 172 39 204 56 58 32 141 114 178 178 77 134 74 100 74 835 -1 366 -5 666 -10 679 -5 13 -19 33 -31 44 -21 19 -36 20 -406 20 l-384 0 -32 -33 -33 -32 -5 -458 c-5 -453 -5 -457 -27 -488 -14 -19 -35 -34 -54 -38 -17 -3 -155 -6 -306 -6 l-274 0 1 483 c1 279 -3 493 -8 507 -5 14 -20 34 -32 45 -21 19 -38 20 -389 23 -364 3 -366 2 -411 -20z m418 -876 l2 -523 613 3 612 4 77 29 c101 37 140 71 179 152 l31 66 2 396 c1 389 1 396 21 396 20 0 20 -8 23 -325 4 -442 -10 -536 -94 -629 -83 -93 -181 -121 -416 -121 -126 0 -138 -2 -138 -18 0 -10 4 -22 9 -27 5 -6 21 -39 36 -75 14 -36 30 -74 35 -85 5 -11 18 -42 30 -70 12 -27 27 -63 35 -80 43 -92 75 -166 75 -171 0 -4 17 -44 50 -119 5 -11 18 -42 30 -70 12 -27 27 -63 35 -80 45 -98 75 -166 75 -173 1 -4 9 -25 20 -47 24 -51 24 -55 0 -55 -13 0 -24 10 -30 28 -6 15 -15 36 -20 47 -5 11 -18 43 -30 70 -12 28 -27 64 -35 80 -44 95 -75 166 -75 171 0 3 -6 20 -14 37 -8 18 -24 55 -36 82 -12 28 -27 64 -35 80 -44 95 -75 166 -75 171 0 3 -6 20 -14 37 -8 18 -24 55 -36 82 -12 28 -27 64 -35 80 -7 17 -21 47 -30 68 l-16 37 -432 0 -432 0 3 -535 3 -535 -26 0 -25 0 0 1068 c0 588 3 1072 7 1076 4 4 14 5 23 4 13 -3 15 -63 18 -526z"/>
 </g>
<g id="layer103" fill="#ffffff" stroke="none">
 <path d="M0 5120 l0 -5120 5120 0 5120 0 0 5120 0 5120 -5120 0 -5120 0 0 -5120z m8655 3715 c114 -22 183 -62 355 -206 323 -271 320 -265 320 -628 0 -219 -1 -233 -24 -298 -20 -54 -36 -78 -78 -118 -30 -27 -65 -55 -79 -62 -31 -15 -89 -39 -113 -47 -18 -6 -18 -7 0 -27 11 -12 58 -53 107 -92 67 -55 89 -79 97 -107 13 -45 13 -334 0 -380 -19 -70 -21 -70 -453 -70 -580 0 -570 -3 -878 257 -174 146 -213 187 -248 262 l-26 56 0 270 0 270 27 57 c32 69 98 136 167 169 28 13 51 27 51 30 0 3 -35 35 -77 70 -43 35 -99 84 -125 108 l-48 44 0 201 c1 209 3 220 45 244 32 18 881 16 980 -3z m-2615 -36 c288 -26 515 -99 665 -213 83 -63 567 -468 606 -507 55 -55 102 -131 131 -214 54 -151 53 -126 53 -1305 0 -1073 0 -1096 -20 -1128 -11 -18 -38 -41 -60 -52 -39 -19 -63 -20 -403 -20 -287 0 -369 3 -395 14 -54 23 -569 462 -592 504 -19 36 -20 59 -23 815 -2 471 -7 777 -12 777 -5 0 -18 -12 -27 -27 -17 -25 -18 -91 -23 -1008 -5 -915 -6 -983 -23 -1008 -41 -63 -34 -62 -457 -64 -349 -3 -389 -1 -422 15 -21 9 -159 120 -307 245 -219 185 -272 235 -285 268 -14 35 -16 147 -16 1037 0 1066 2 1108 51 1262 106 332 384 530 844 600 173 27 475 31 715 9z m-4142 -59 c49 -23 581 -470 600 -505 14 -25 18 -70 20 -272 l3 -243 35 0 34 0 0 449 c0 466 2 493 43 538 40 45 70 48 452 48 326 0 363 -2 395 -18 51 -26 561 -456 586 -495 16 -24 24 -54 29 -115 3 -45 5 -658 3 -1362 -3 -1257 -3 -1281 -23 -1319 -11 -22 -33 -49 -48 -60 -27 -20 -42 -21 -410 -23 -345 -3 -386 -1 -419 15 -21 9 -159 120 -307 245 -219 185 -272 235 -285 268 -13 32 -16 81 -16 259 l0 220 -35 0 -34 0 -3 -452 c-3 -431 -4 -455 -23 -486 -11 -18 -38 -41 -60 -52 -39 -19 -63 -20 -410 -20 -352 0 -371 1 -409 20 -53 27 -544 445 -573 488 -12 18 -24 56 -28 85 -3 29 -5 646 -3 1372 l3 1320 22 36 c23 37 73 65 128 73 17 2 181 3 365 2 273 -1 341 -4 368 -16z m6485 -3025 c91 -76 171 -151 176 -165 11 -28 31 -488 31 -717 0 -140 -1 -151 -21 -169 -19 -17 -42 -19 -268 -22 -135 -2 -260 -1 -277 3 -28 5 -146 97 -318 248 l-69 61 7 276 c4 151 11 347 15 434 10 215 -17 198 306 194 l251 -3 167 -140z m-5548 -578 c229 -46 298 -85 630 -362 325 -271 399 -345 449 -446 67 -136 69 -147 73 -531 5 -395 -3 -470 -62 -593 -69 -144 -226 -260 -444 -327 l-45 -14 181 -152 c100 -83 191 -166 204 -184 24 -33 24 -33 24 -348 0 -357 -1 -362 -80 -400 -40 -19 -64 -20 -686 -20 -515 0 -663 3 -742 15 -149 22 -298 78 -387 144 -98 73 -582 486 -623 531 -70 78 -133 214 -153 329 -23 136 -15 727 10 816 56 192 191 336 376 402 27 10 49 21 48 24 -2 4 -89 79 -194 167 -211 177 -240 207 -249 255 -3 18 -5 160 -3 317 3 308 6 323 59 362 14 11 47 23 75 28 27 5 366 7 754 5 594 -2 718 -5 785 -18z m2279 5 c52 -23 585 -474 603 -512 15 -30 19 -74 23 -285 l5 -250 23 23 22 22 1 408 c0 224 4 431 8 460 9 60 33 98 82 127 32 19 52 20 384 20 193 0 367 -4 388 -8 51 -11 592 -458 622 -515 19 -36 20 -59 23 -637 2 -402 -1 -628 -8 -685 -23 -176 -112 -324 -244 -408 -44 -27 -165 -72 -196 -72 -11 0 -20 -4 -20 -9 0 -5 29 -75 65 -156 36 -80 65 -148 65 -150 0 -3 11 -28 25 -57 13 -29 58 -132 101 -228 162 -372 164 -377 115 -432 l-29 -33 -399 0 c-357 0 -401 2 -429 17 -39 21 -564 463 -584 492 -14 19 -15 1 -20 -189 -5 -230 -11 -253 -73 -299 -28 -20 -40 -21 -400 -24 -250 -2 -384 0 -410 8 -44 13 -558 440 -597 497 l-25 36 0 1371 c0 1293 1 1373 18 1403 23 42 54 62 114 73 77 13 713 7 747 -8z"/>
 <path d="M7989 8533 c-10 -12 -15 -61 -17 -193 -3 -163 -2 -178 16 -201 l20 -24 358 -3 c409 -3 394 0 394 -83 0 -65 -16 -74 -165 -94 -353 -48 -376 -53 -473 -112 -64 -39 -95 -77 -127 -153 -16 -38 -20 -78 -23 -252 -4 -225 2 -279 44 -362 33 -67 76 -110 149 -151 115 -65 162 -70 606 -70 376 0 398 1 418 19 20 18 21 29 21 207 l0 188 -26 20 c-26 20 -38 21 -338 21 l-312 0 -18 30 c-20 35 -15 79 13 104 10 9 50 20 92 26 41 5 126 17 189 25 309 40 425 108 475 279 14 46 16 94 13 273 -3 198 -6 223 -26 274 -43 109 -143 191 -278 229 -64 19 -101 20 -530 20 -417 0 -463 -2 -475 -17z m921 -209 c55 -25 102 -77 125 -136 13 -36 16 -71 13 -184 -4 -161 -17 -201 -83 -246 -42 -28 -46 -30 -390 -98 -249 -50 -259 -54 -293 -97 -27 -36 -27 -38 -27 -187 0 -135 2 -155 21 -191 54 -100 75 -105 429 -105 254 0 294 -2 299 -15 3 -9 -1 -18 -8 -21 -8 -3 -149 -4 -313 -2 -285 3 -300 4 -339 25 -23 12 -58 41 -77 64 -44 51 -51 94 -45 286 4 158 12 177 81 212 23 12 98 32 167 46 432 85 483 99 514 148 24 38 38 129 35 227 -5 123 -31 180 -104 225 l-48 30 -336 3 c-325 3 -371 7 -355 34 4 6 137 8 348 6 321 -3 344 -4 386 -24z"/>
 <path d="M5945 8330 c-146 -13 -285 -38 -398 -71 -302 -90 -458 -230 -529 -474 l-23 -80 -2 -1110 c-2 -880 0 -1115 10 -1135 7 -14 28 -33 47 -42 31 -16 72 -18 393 -18 403 0 416 2 442 64 13 30 15 174 15 983 0 898 1 950 19 988 41 90 112 117 311 117 187 0 270 -26 307 -94 17 -31 18 -94 23 -1003 4 -786 8 -975 18 -996 29 -56 50 -59 433 -59 390 0 405 2 431 63 11 26 13 232 13 1117 l0 1085 -23 90 c-28 110 -56 173 -110 244 -125 164 -348 267 -692 316 -126 19 -543 27 -685 15z m460 -370 c132 -12 199 -24 285 -52 168 -54 292 -192 329 -366 8 -37 11 -317 11 -917 0 -858 0 -865 -20 -865 -20 0 -20 7 -20 853 0 567 -4 873 -11 912 -16 86 -49 153 -109 218 -77 84 -139 116 -290 151 -104 24 -314 39 -440 32 -349 -20 -515 -90 -613 -257 -58 -98 -57 -85 -57 -1036 l0 -873 -26 0 -25 0 3 883 c4 821 5 886 22 937 50 150 141 256 267 307 167 70 431 97 694 73z"/>
 <path d="M1651 8267 c-19 -7 -44 -25 -55 -40 l-21 -28 -3 -1342 c-3 -1493 -6 -1408 62 -1441 50 -24 731 -24 781 -1 60 29 60 25 63 533 l3 462 334 0 335 0 0 -462 c0 -350 3 -469 13 -488 7 -14 28 -33 47 -42 31 -16 72 -18 390 -18 318 0 359 2 390 18 19 9 40 28 47 42 10 20 13 316 13 1375 0 1265 -1 1352 -18 1385 -11 24 -28 39 -52 47 -46 16 -698 18 -753 2 -26 -7 -44 -21 -57 -42 -19 -31 -20 -54 -20 -504 l0 -473 -335 0 -334 0 -3 474 c-3 464 -3 475 -24 503 -36 49 -61 52 -429 52 -238 0 -350 -4 -374 -12z m389 -877 l0 -530 770 0 770 0 0 530 c0 523 0 530 20 530 20 0 20 -7 20 -1080 0 -1073 0 -1080 -20 -1080 -20 0 -20 7 -20 530 l0 530 -770 0 -770 0 0 -530 c0 -523 0 -530 -20 -530 -20 0 -20 7 -20 1080 0 1073 0 1080 20 1080 20 0 20 -7 20 -530z"/>
 <path d="M8060 5563 c-40 -8 -48 -21 -54 -86 -13 -128 -25 -751 -15 -769 5 -9 26 -22 47 -28 40 -11 393 -14 455 -3 73 12 72 2 56 453 -13 358 -16 401 -32 417 -16 16 -41 18 -225 19 -114 1 -218 0 -232 -3z m228 -440 c-2 -178 -6 -237 -15 -241 -10 -3 -13 49 -13 237 0 209 2 241 15 241 13 0 15 -31 13 -237z"/>
 <path d="M1792 4669 c-20 -6 -40 -22 -52 -42 -19 -30 -20 -52 -20 -325 0 -320 2 -335 57 -363 23 -11 131 -15 619 -19 471 -4 594 -8 607 -18 45 -38 47 -156 4 -200 -24 -24 -47 -28 -394 -78 -202 -29 -399 -62 -438 -73 -176 -52 -330 -162 -387 -276 -59 -117 -63 -156 -63 -565 l0 -375 28 -82 c45 -134 122 -232 245 -314 81 -53 148 -82 267 -112 76 -19 115 -21 762 -24 758 -5 737 -6 765 60 18 45 19 588 0 633 -28 65 -17 64 -570 64 -339 0 -509 4 -531 11 -81 28 -86 174 -8 223 13 8 167 33 370 61 211 28 382 56 435 72 182 52 338 164 395 283 58 122 62 152 62 545 0 313 -2 368 -18 425 -31 114 -74 188 -156 271 -84 84 -154 127 -263 165 -173 59 -141 57 -943 60 -460 2 -752 -1 -773 -7z m1378 -360 c89 -14 160 -49 223 -108 106 -100 133 -206 125 -481 -6 -198 -24 -266 -84 -327 -77 -76 -104 -85 -611 -188 -257 -52 -485 -103 -506 -112 -21 -9 -51 -31 -66 -49 -51 -58 -56 -88 -56 -344 0 -200 3 -243 18 -286 22 -63 74 -126 133 -160 88 -52 111 -54 627 -54 470 0 477 0 477 -20 0 -20 -7 -20 -475 -20 -486 0 -534 3 -619 41 -60 26 -133 94 -161 148 -39 79 -47 148 -42 386 4 240 11 276 59 331 57 64 97 76 548 168 501 102 531 110 588 143 105 62 125 131 120 428 -3 202 -4 212 -29 265 -32 67 -93 130 -156 160 -99 46 -144 50 -695 50 -425 0 -518 2 -518 13 0 8 3 17 7 20 11 12 1022 8 1093 -4z"/>
 <path d="M4858 4664 c-73 -31 -68 72 -68 -1423 0 -1155 2 -1347 15 -1377 26 -63 39 -65 456 -62 l371 3 29 33 29 32 0 495 0 495 83 0 83 0 27 -57 c14 -32 62 -141 107 -243 45 -102 88 -198 95 -215 8 -16 57 -127 109 -245 57 -129 106 -227 124 -246 49 -52 81 -55 474 -52 398 3 393 2 391 71 -1 19 -86 226 -208 505 -113 259 -203 476 -200 482 3 5 21 10 40 10 55 0 159 38 225 81 93 63 163 165 194 286 14 52 16 151 16 706 0 386 -4 656 -10 671 -5 14 -21 33 -37 43 -25 16 -60 18 -378 21 -383 3 -411 0 -449 -51 -20 -28 -21 -41 -26 -489 l-5 -460 -33 -29 -32 -29 -295 0 -295 0 0 484 c0 284 -4 495 -10 510 -5 14 -21 33 -37 43 -25 16 -59 18 -388 20 -306 2 -365 0 -397 -13z m410 -877 l2 -529 603 4 c525 4 609 7 660 21 125 36 183 81 224 173 16 35 19 84 23 449 5 402 5 410 25 410 20 0 20 -8 23 -325 4 -470 -10 -562 -97 -649 -79 -79 -185 -110 -408 -120 l-143 -6 76 -175 c41 -96 106 -248 144 -337 38 -89 83 -190 98 -225 39 -83 132 -306 132 -314 0 -3 -9 -4 -21 -2 -17 2 -61 96 -247 528 l-228 525 -432 3 -432 2 0 -530 0 -530 -25 0 -25 0 0 1073 c0 591 3 1077 7 1081 4 4 14 5 23 4 13 -3 15 -64 18 -531z"/>
 </g>

</svg>